<?xml version="1.0" standalone="no"?>
<!DOCTYPE svg PUBLIC "-//W3C//DTD SVG 20010904//EN"
 "http://www.w3.org/TR/2001/REC-SVG-20010904/DTD/svg10.dtd">
<svg version="1.0" xmlns="http://www.w3.org/2000/svg"
 width="300.000000pt" height="300.000000pt" viewBox="0 0 300.000000 300.000000"
 preserveAspectRatio="xMidYMid meet">
<metadata>
Created by potrace 1.10, written by Peter Selinger 2001-2011
</metadata>
<g transform="translate(0.000000,300.000000) scale(0.100000,-0.100000)"
fill="#000000" stroke="none">
<path d="M1330 2590 c-25 -4 -65 -15 -90 -24 -25 -9 -53 -16 -62 -16 -10 0
-27 -9 -39 -21 -11 -11 -27 -18 -35 -15 -8 3 -13 0 -11 -7 1 -7 -7 -11 -18 -9
-16 2 -17 1 -5 -7 11 -8 11 -11 3 -12 -7 -1 -17 -2 -22 -3 -14 -2 -121 -120
-121 -133 0 -7 -3 -13 -7 -13 -5 0 -17 -18 -27 -40 -11 -22 -24 -40 -29 -40
-6 0 -7 -3 -4 -6 3 -4 2 -15 -4 -25 -51 -96 -68 -408 -29 -547 11 -40 30 -93
41 -117 11 -24 17 -49 13 -56 -5 -8 -3 -9 5 -5 8 5 14 0 18 -13 3 -12 9 -21
14 -21 5 0 9 -6 9 -13 0 -7 17 -31 37 -53 20 -21 36 -43 35 -48 -2 -5 4 -6 13
-3 9 4 15 1 15 -8 0 -8 5 -15 11 -15 7 0 18 -8 26 -17 8 -10 11 -12 8 -4 -5 9
1 8 19 -4 14 -10 26 -21 26 -27 0 -5 8 -8 18 -6 9 2 16 -2 15 -8 -1 -7 6 -10
17 -7 11 3 26 -2 34 -10 31 -31 288 -51 451 -35 96 9 176 29 168 41 -4 6 2 8
15 5 13 -4 23 0 26 9 4 8 13 13 20 10 8 -3 17 1 20 9 3 9 10 13 15 10 5 -3 12
1 15 10 3 9 12 14 18 12 14 -5 38 15 38 31 0 6 7 8 15 5 8 -4 15 -1 15 6 0 15
25 40 40 40 6 0 9 4 6 9 -4 5 -3 11 1 13 26 11 106 174 129 262 16 58 19 375
5 422 -5 16 -15 49 -22 74 -7 25 -21 60 -32 79 -10 18 -16 40 -13 48 3 8 1 11
-4 8 -5 -3 -19 14 -31 39 -11 25 -26 44 -32 43 -7 -1 -11 4 -9 11 1 6 -5 12
-13 12 -8 0 -15 6 -15 13 0 7 -10 17 -22 22 -13 6 -22 16 -20 23 1 8 -5 12
-15 10 -11 -2 -17 2 -15 11 2 8 -3 11 -12 8 -16 -6 -32 8 -19 16 5 2 3 3 -3 1
-6 -1 -16 2 -21 7 -15 15 -147 58 -214 68 -73 12 -292 13 -359 1z m400 -26
c213 -50 390 -221 444 -430 24 -93 22 -398 -2 -479 -59 -193 -195 -337 -382
-406 -61 -23 -78 -24 -280 -24 -213 0 -216 0 -288 29 -141 55 -247 145 -316
271 -65 117 -71 147 -71 380 0 205 1 212 28 279 32 82 54 119 110 186 77 92
197 166 314 194 83 20 358 20 443 0z"/>
<path d="M1305 2545 c-198 -44 -353 -182 -423 -376 -23 -66 -26 -92 -30 -236
-5 -191 9 -272 65 -385 73 -145 238 -269 397 -297 89 -16 339 -14 415 4 185
44 346 188 413 370 30 84 39 396 13 495 -55 214 -228 380 -440 425 -88 18
-327 18 -410 0z m426 -21 c8 -6 32 -17 54 -24 74 -22 109 -41 94 -51 -10 -6
-7 -8 11 -7 16 2 24 -2 22 -10 -1 -6 2 -11 6 -10 5 2 27 -16 49 -39 23 -24 46
-43 52 -43 6 0 11 -7 11 -16 0 -9 5 -12 12 -8 6 4 8 3 5 -3 -4 -6 7 -29 23
-52 29 -39 42 -69 69 -152 6 -21 11 -106 11 -210 0 -160 -7 -221 -30 -274 -4
-11 -11 -28 -14 -38 -3 -10 -11 -15 -17 -12 -6 4 -9 1 -8 -6 3 -17 -39 -89
-52 -89 -4 0 -6 -7 -3 -15 5 -11 2 -13 -12 -8 -13 5 -16 3 -11 -10 3 -9 2 -17
-4 -17 -10 0 -24 -10 -64 -48 -13 -12 -28 -22 -33 -22 -6 0 -13 -7 -16 -16 -3
-8 -10 -12 -16 -9 -5 3 -10 2 -10 -3 0 -10 -61 -39 -100 -48 -84 -19 -173 -25
-305 -21 -136 5 -187 13 -237 38 -10 5 -25 9 -34 9 -10 0 -14 6 -11 14 4 10 0
12 -14 9 -11 -3 -21 1 -25 11 -3 9 -12 16 -20 16 -8 0 -14 4 -14 10 0 5 -4 9
-8 7 -10 -2 -72 61 -72 74 0 5 -7 9 -16 9 -8 0 -13 4 -10 9 3 4 -3 16 -14 26
-11 10 -20 28 -20 39 0 15 -3 17 -9 8 -7 -11 -10 -10 -15 3 -3 9 -4 20 -1 25
3 4 -2 10 -10 14 -8 3 -15 12 -15 21 0 8 -4 23 -9 33 -22 40 -31 120 -31 269
0 133 3 168 22 228 12 38 28 78 37 89 9 10 15 20 14 22 -2 2 0 3 3 2 3 -2 12
12 20 31 8 19 34 52 57 74 23 21 41 43 39 49 -1 5 2 7 8 3 5 -3 13 0 16 9 3 8
12 12 20 9 10 -4 12 0 7 12 -5 15 -2 17 15 13 15 -4 19 -2 15 8 -3 9 2 14 16
14 12 0 21 4 21 8 0 5 23 14 50 21 28 7 50 17 50 21 0 14 63 18 256 16 116 -1
186 -5 195 -12z"/>
<path d="M1443 2523 c37 -2 97 -2 135 0 37 2 6 3 -68 3 -74 0 -105 -1 -67 -3z"/>
<path d="M1496 2373 c-3 -3 -17 -7 -31 -9 -37 -4 -55 -22 -55 -55 0 -19 -5
-29 -15 -29 -8 0 -15 5 -15 10 0 6 -11 10 -24 10 -31 0 -66 -42 -60 -73 4 -21
4 -21 -6 -2 -6 11 -27 31 -46 45 -33 22 -38 23 -63 9 -14 -8 -27 -24 -29 -36
-2 -15 -8 -19 -21 -16 -22 6 -68 -51 -51 -62 8 -5 8 -11 1 -19 -6 -7 -7 -16
-3 -21 4 -4 -2 -3 -14 3 -47 25 -60 -39 -17 -82 l27 -27 -18 -49 c-19 -52 -18
-165 2 -225 31 -99 118 -206 202 -250 21 -11 56 -30 77 -41 108 -61 286 -54
373 14 14 10 36 23 50 27 33 10 145 127 171 178 49 95 63 215 35 295 -13 36
-13 42 0 53 9 7 21 24 28 38 21 41 3 71 -41 71 -19 0 -22 5 -21 34 2 49 -40
102 -86 110 -41 8 -71 -5 -103 -42 l-23 -27 0 27 c0 33 -27 68 -54 68 -23 0
-56 -36 -56 -62 0 -10 -7 -18 -15 -18 -20 0 -19 20 1 34 19 15 22 73 3 91 -8
8 -25 16 -39 19 -14 2 -25 5 -25 6 0 5 -35 7 -39 3z m48 -35 c8 -14 7 -22 -8
-35 -10 -10 -16 -12 -12 -5 4 7 1 12 -8 12 -9 0 -16 8 -16 17 0 13 -3 14 -12
5 -9 -9 -7 -17 8 -34 l19 -23 -22 19 c-26 22 -29 36 -11 54 17 17 48 11 62
-10z m-81 -28 c11 -54 97 -49 97 5 0 16 6 25 15 25 22 0 18 -33 -6 -64 -29
-37 -92 -34 -122 6 -11 14 -17 34 -14 42 10 25 24 19 30 -14z m-92 -80 c-15
-15 -17 -15 -32 -1 -14 15 -14 18 0 37 15 21 15 21 32 1 14 -18 14 -22 0 -37z
m311 0 c-13 -16 -16 -16 -31 -1 -16 15 -16 18 -2 38 l16 22 16 -21 c14 -19 15
-23 1 -38z m-445 4 c21 -21 25 -32 20 -64 -3 -22 0 -43 7 -50 8 -8 5 -16 -14
-30 -25 -19 -25 -19 -39 0 -7 11 -22 20 -33 20 -27 0 -68 45 -68 75 0 32 14
32 28 0 14 -30 20 -30 50 -6 27 24 27 29 0 58 l-21 23 22 0 c12 0 34 -12 48
-26z m608 -9 c-16 -14 -33 -25 -37 -25 -5 0 -8 -13 -8 -30 0 -54 63 -33 74 25
10 49 26 44 26 -9 0 -48 -19 -76 -51 -76 -10 0 -27 -9 -36 -19 -15 -18 -18
-18 -40 -4 -26 17 -30 33 -9 33 12 0 12 7 5 35 -16 57 16 93 81 94 l25 0 -30
-24z m-505 -54 c0 -22 -4 -43 -10 -46 -6 -4 -10 12 -10 39 0 25 5 46 10 46 6
0 10 -18 10 -39z m360 -7 c0 -27 -4 -43 -10 -39 -17 11 -11 85 7 85 2 0 3 -21
3 -46z m-72 4 c5 -7 12 -48 14 -90 7 -105 3 -108 -133 -108 -68 0 -109 4 -117
12 -7 7 -12 43 -12 93 0 50 5 86 12 93 17 17 222 16 236 0z m-544 -99 c-3 -5
1 -9 8 -10 15 -1 128 -132 128 -148 0 -21 -15 -10 -53 38 -21 27 -61 72 -88
100 -27 28 -47 56 -43 62 4 6 15 2 30 -12 13 -12 21 -26 18 -30z m885 2 c-18
-24 -25 -28 -36 -19 -11 9 -9 16 14 40 35 37 53 21 22 -21z m-612 -11 c-2 -55
-17 -61 -31 -12 -10 36 -3 62 19 62 12 0 14 -11 12 -50z m341 9 c2 -23 -2 -40
-12 -49 -14 -11 -16 -8 -16 23 0 19 -3 43 -6 52 -5 13 -2 16 12 13 14 -2 20
-13 22 -39z m-534 18 c17 -12 17 -14 -1 -36 -17 -21 -20 -21 -32 -8 -12 16 -7
57 8 57 4 0 15 -6 25 -13z m724 -43 c-13 -14 -17 -12 -32 11 -16 25 -16 26 6
34 30 12 50 -22 26 -45z m-590 5 c2 -19 10 -38 18 -42 17 -9 38 -47 27 -47 -5
0 -27 24 -50 54 -32 40 -39 56 -30 65 18 18 32 7 35 -30z m459 30 c9 -9 1 -26
-30 -67 -31 -41 -43 -51 -45 -38 -2 10 6 24 17 32 13 9 21 26 21 43 0 40 15
52 37 30z m-468 -92 c43 -56 50 -77 28 -77 -11 0 -61 59 -90 107 -9 15 0 36
12 28 5 -2 27 -29 50 -58z m511 42 c0 -15 -81 -114 -94 -114 -21 0 -11 25 32
80 39 49 62 62 62 34z m73 -67 c-33 -41 -62 -67 -67 -62 -5 5 15 39 49 80 37
47 61 68 67 62 6 -6 -11 -34 -49 -80z m-656 26 c12 -18 20 -34 17 -37 -5 -6
-53 49 -54 62 0 16 16 5 37 -25z m623 25 c-1 -13 -49 -68 -54 -62 -6 6 36 69
47 69 4 0 7 -3 7 -7z m-716 -65 c-3 -11 -6 -50 -5 -88 1 -83 28 -161 76 -218
34 -39 35 -42 16 -51 -16 -9 -23 -5 -46 24 -70 92 -99 217 -80 341 6 45 7 45
26 28 12 -11 17 -24 13 -36z m817 -16 c11 -79 -5 -175 -42 -247 -39 -76 -65
-104 -90 -98 -25 7 -24 9 11 49 62 71 98 188 84 274 -4 27 -2 50 6 66 17 32
22 25 31 -44z m-321 8 c0 -6 -43 -10 -110 -10 -67 0 -110 4 -110 10 0 6 43 10
110 10 67 0 110 -4 110 -10z m-376 -64 c-49 -43 -62 -31 -17 16 17 18 30 25
36 19 6 -6 -1 -19 -19 -35z m579 -18 c-7 -13 -16 -9 -46 17 -16 14 -25 30 -22
35 7 12 75 -40 68 -52z m-132 25 c10 -12 14 -51 14 -149 0 -176 -19 -186 -23
-12 -2 91 -6 129 -16 137 -9 8 -63 11 -162 9 l-149 -3 -5 -134 c-4 -95 -9
-136 -17 -139 -18 -5 -18 279 -1 296 8 8 62 12 179 12 143 0 169 -2 180 -17z
m-401 -29 c0 -14 -4 -23 -10 -19 -5 3 -10 2 -10 -4 0 -5 5 -13 10 -16 6 -3 10
-20 10 -37 l0 -31 -30 41 c-16 23 -30 44 -30 47 0 7 43 45 52 45 4 0 8 -12 8
-26z m469 16 c32 -17 32 -39 1 -82 l-30 -41 0 31 c0 17 5 34 10 37 6 3 10 11
10 16 0 6 -4 7 -10 4 -6 -4 -10 5 -10 19 0 29 3 30 29 16z m-196 -62 c4 -15
11 -18 27 -13 20 6 21 4 15 -24 -5 -24 -3 -31 9 -31 9 0 16 -7 16 -15 0 -8 -7
-15 -15 -15 -17 0 -20 -26 -5 -35 8 -5 7 -11 -1 -21 -8 -10 -15 -11 -24 -4
-14 12 -25 3 -25 -22 0 -10 -7 -18 -15 -18 -8 0 -15 5 -15 10 0 6 -9 10 -20
10 -11 0 -20 -4 -20 -10 0 -20 -29 -9 -32 13 -2 16 -9 21 -25 19 -16 -2 -23 2
-23 12 0 9 4 16 10 16 5 0 7 7 4 15 -4 8 -12 15 -20 15 -8 0 -14 7 -14 15 0 8
7 15 16 15 12 0 14 7 9 31 -7 29 -5 31 15 26 16 -4 24 -1 27 14 6 22 23 25 42
7 11 -11 15 -10 24 3 13 21 33 14 40 -13z m-347 1 c17 -19 18 -21 1 -30 -26
-15 -21 -32 28 -91 55 -67 64 -115 10 -53 -48 55 -105 141 -105 157 0 17 20
38 35 38 7 0 20 -9 31 -21z m650 -3 c6 -27 -35 -98 -100 -171 -27 -31 -35 -36
-36 -21 0 10 20 43 45 72 48 56 54 74 30 94 -14 12 -14 15 1 31 24 27 52 24
60 -5z m-603 -60 c15 -22 15 -25 -1 -31 -17 -6 -42 18 -42 42 0 21 27 15 43
-11z m537 11 c0 -24 -25 -48 -43 -42 -15 7 -15 8 1 31 19 26 42 32 42 11z m-4
-189 c3 -5 -2 -18 -12 -29 -16 -18 -33 -19 -275 -19 -253 0 -258 0 -273 22 -8
12 -13 24 -11 28 6 10 565 9 571 -2z m-336 -87 c40 -7 75 -5 128 6 41 8 88 13
105 11 l32 -4 -50 -23 c-74 -35 -218 -41 -299 -12 -119 42 -85 51 84 22z"/>
<path d="M1414 2116 c-3 -7 -4 -35 -2 -62 l3 -49 80 -3 c118 -4 125 -1 125 56
0 26 -5 53 -12 60 -18 18 -187 16 -194 -2z m56 -50 c0 -20 -19 -31 -32 -18 -6
6 -7 15 -4 21 10 16 36 13 36 -3z m115 -6 c0 -22 -29 -18 -33 3 -3 14 1 18 15
15 10 -2 18 -10 18 -18z"/>
<path d="M1467 1762 c-37 -40 -7 -102 49 -102 46 0 72 71 38 104 -21 22 -67
20 -87 -2z m78 -37 c0 -55 -65 -59 -73 -5 -5 30 22 51 51 41 15 -6 22 -17 22
-36z"/>
<path d="M1490 1720 c0 -13 7 -20 20 -20 13 0 20 7 20 20 0 13 -7 20 -20 20
-13 0 -20 -7 -20 -20z"/>
<path d="M1455 1550 c-4 -6 17 -10 55 -10 38 0 59 4 55 10 -3 6 -28 10 -55 10
-27 0 -52 -4 -55 -10z"/>
<path d="M1310 1176 c0 -20 -29 -28 -65 -18 -45 12 -90 8 -119 -11 l-26 -17 0
-210 0 -209 25 -19 c26 -21 30 -21 133 -4 28 5 52 5 52 1 0 -5 -6 -9 -14 -9
-10 0 -17 -15 -21 -44 -8 -48 0 -82 21 -104 16 -16 18 -38 4 -47 -17 -11 -11
-54 9 -65 33 -17 117 -12 160 11 22 11 48 18 58 15 12 -4 30 4 49 22 29 26 33
27 67 16 32 -11 37 -10 56 10 12 12 18 25 15 29 -3 3 -3 11 1 17 5 8 13 1 22
-18 27 -56 72 -49 74 12 2 57 11 75 37 65 12 -5 22 -12 22 -17 0 -15 58 -42
90 -42 23 0 41 9 66 34 31 31 33 36 24 67 -6 19 -7 48 -4 66 5 27 1 37 -22 58
-29 27 -60 29 -135 10 -23 -6 -29 -3 -41 22 -22 46 -66 40 -96 -13 -6 -12 -14
-12 -39 -4 -36 13 -50 42 -58 120 -3 30 -10 69 -14 85 -5 17 -12 55 -16 84 -9
79 -31 111 -75 111 -27 0 -41 -7 -60 -30 -25 -31 -25 -31 -46 -12 -49 46 -134
70 -134 38z m108 -56 c20 -18 22 -31 22 -112 0 -100 -12 -128 -55 -128 -28 0
-37 -30 -28 -95 l6 -47 -29 4 -29 3 -3 198 -3 197 49 0 c35 0 54 -6 70 -20z
m166 -12 c3 -18 7 -51 11 -73 13 -95 36 -242 41 -267 5 -26 3 -28 -26 -28 -28
0 -32 3 -27 21 9 32 -12 69 -40 69 -23 0 -27 -7 -23 -47 1 -21 0 -22 -29 -7
-17 9 -31 21 -31 27 0 7 12 85 27 175 l27 162 33 0 c29 0 33 -4 37 -32z m-329
9 c15 -12 18 -26 16 -88 -1 -41 -6 -78 -11 -83 -5 -5 -6 -14 -1 -20 5 -6 11
-57 13 -113 4 -100 3 -103 -18 -103 -29 0 -34 17 -34 111 0 64 -3 79 -15 79
-12 0 -15 -15 -17 -67 0 -38 -2 -80 -2 -95 -1 -17 3 -27 11 -25 6 1 12 -1 12
-5 1 -10 -2 -10 -45 -2 l-36 7 5 206 c4 113 6 207 7 209 1 9 100 -1 115 -11z
m171 -308 c-5 -46 -13 -59 -25 -41 -14 24 5 81 27 82 2 0 1 -18 -2 -41z m408
-14 c-1 -5 -4 -25 -8 -44 -6 -31 -4 -33 17 -26 12 3 30 8 41 9 10 1 24 10 30
18 9 13 21 14 55 8 65 -12 79 -43 36 -85 -15 -16 -36 -25 -55 -25 -27 0 -31
-3 -28 -22 4 -33 39 -34 76 -4 36 31 42 32 42 7 0 -25 -55 -71 -85 -71 -27 0
-81 42 -90 70 -3 10 1 35 9 55 l16 37 -38 -33 c-44 -38 -49 -49 -58 -129 -4
-33 -10 -63 -14 -65 -13 -8 -31 84 -24 121 5 27 2 38 -11 48 -19 14 -13 36 10
36 17 0 25 22 25 71 0 38 2 40 28 37 15 -2 26 -7 26 -13z m-279 -30 c0 -32 -2
-35 -30 -35 -52 0 -75 11 -75 34 0 11 4 17 8 11 4 -5 12 -11 17 -12 6 -1 24
-5 40 -9 17 -4 27 -3 23 1 -6 6 7 45 15 45 1 0 2 -16 2 -35z m163 -15 c18 -17
20 -25 12 -40 -6 -11 -15 -20 -20 -20 -16 0 -43 49 -36 65 7 20 18 19 44 -5z
m-284 -52 c19 -27 12 -38 -24 -38 -20 0 -35 -8 -46 -25 -21 -33 -12 -53 33
-71 21 -9 46 -23 56 -32 16 -14 17 -13 17 11 0 47 22 128 33 124 18 -6 27 -58
17 -101 -5 -22 -7 -43 -4 -45 10 -10 24 17 33 62 10 58 14 62 40 48 12 -7 21
-23 23 -44 l3 -32 21 40 c21 39 48 55 65 38 11 -11 -14 -136 -28 -140 -6 -2
-17 4 -25 14 -18 25 -66 26 -73 2 -4 -11 -17 -26 -30 -35 -21 -14 -26 -14 -49
1 -24 16 -26 16 -26 1 0 -25 -66 -49 -118 -43 -51 6 -59 11 -42 32 8 9 29 15
56 15 51 0 57 12 14 30 -58 24 -80 48 -80 89 0 45 29 87 74 107 41 18 42 17
60 -8z m156 10 c0 -5 16 -8 34 -7 37 4 49 -2 52 -25 2 -13 -23 -27 -51 -29
-24 -2 -89 16 -101 28 -12 11 -12 16 -1 27 16 15 67 20 67 6z m-136 -85 c-7
-26 -20 -42 -35 -43 -14 0 -19 33 -8 46 14 17 32 18 24 2 -3 -7 0 -5 7 5 18
23 20 22 12 -10z"/>
<path d="M1362 1085 c-12 -30 -10 -150 3 -163 4 -4 13 2 22 13 11 15 14 36 10
81 -2 34 0 70 5 80 9 18 9 18 -5 1 -15 -18 -15 -18 -19 0 -3 14 -6 11 -16 -12z"/>
<path d="M1536 960 c-15 -74 -14 -80 10 -80 21 0 22 3 17 38 -8 54 -20 73 -27
42z"/>
<path d="M1188 1043 c0 -15 0 -37 1 -47 1 -11 -4 -23 -11 -28 -9 -5 -3 -8 15
-8 28 0 29 2 30 65 0 29 -5 41 -17 43 -11 3 -16 -4 -18 -25z"/>
<path d="M1936 698 c-9 -12 -16 -26 -16 -31 0 -13 29 12 41 35 14 26 -6 23
-25 -4z"/>
</g>
</svg>
