<svg id="svg" version="1.1" xmlns="http://www.w3.org/2000/svg" xmlns:xlink="http://www.w3.org/1999/xlink" width="400" height="400" viewBox="0, 0, 400,400"><g id="svgg"><path id="path0" d="M0.000 200.000 L 0.000 400.000 200.000 400.000 L 400.000 400.000 400.000 200.000 L 400.000 0.000 200.000 0.000 L 0.000 0.000 0.000 200.000 M226.813 57.709 C 253.539 62.960,275.194 80.265,285.495 104.600 C 288.387 111.432,289.366 114.822,291.192 124.320 C 291.762 127.282,291.735 166.210,291.161 169.376 C 284.388 206.730,257.982 232.161,221.179 236.771 C 216.712 237.331,185.746 237.335,181.907 236.777 C 176.154 235.940,173.751 235.499,170.800 234.736 C 141.427 227.144,119.333 204.023,112.763 174.000 C 111.708 169.181,111.097 144.863,111.667 130.400 C 113.112 93.737,142.544 62.118,179.800 57.205 C 181.780 56.944,183.670 56.670,184.000 56.597 C 187.422 55.840,221.850 56.734,226.813 57.709 M184.454 58.420 C 148.775 61.339,120.459 87.074,113.838 122.600 C 111.655 134.310,112.018 163.894,114.473 174.400 C 121.811 205.808,144.947 227.962,177.200 234.467 C 183.581 235.754,217.877 235.901,224.567 234.670 C 259.194 228.298,284.133 203.280,289.479 169.550 C 290.397 163.755,290.548 131.435,289.685 125.400 C 284.855 91.636,259.484 65.302,226.077 59.377 C 218.720 58.072,195.293 57.534,184.454 58.420 M194.157 89.433 C 194.291 89.781,194.404 90.456,194.409 90.933 C 194.466 96.551,202.188 99.492,206.240 95.440 C 207.406 94.274,207.786 93.368,208.568 89.900 C 208.849 88.650,210.531 88.321,210.957 89.433 C 212.132 92.494,209.649 97.311,205.901 99.243 C 199.867 102.352,191.644 97.828,191.609 91.380 C 191.597 89.123,193.485 87.680,194.157 89.433 M202.784 89.971 C 203.540 91.382,202.357 92.694,200.781 92.194 C 199.136 91.672,199.647 89.200,201.400 89.200 C 201.950 89.200,202.551 89.534,202.784 89.971 M182.737 98.925 L 184.075 100.315 182.591 101.958 C 180.777 103.965,180.614 103.971,178.717 102.119 C 176.852 100.298,176.851 100.191,178.662 98.336 C 180.310 96.649,180.586 96.689,182.737 98.925 M225.600 100.164 C 225.600 100.733,222.734 103.600,222.165 103.600 C 221.435 103.600,218.791 100.482,219.035 99.909 C 219.154 99.629,219.989 98.807,220.891 98.082 L 222.530 96.764 224.065 98.263 C 224.909 99.088,225.600 99.943,225.600 100.164 M161.799 99.641 C 166.848 102.015,168.825 106.559,167.532 112.818 C 167.101 114.903,167.133 115.198,167.932 116.490 C 169.211 118.559,169.040 119.332,166.900 121.166 C 164.444 123.271,163.559 123.245,161.159 121.000 C 159.937 119.858,158.868 119.200,158.232 119.200 C 153.438 119.200,148.400 114.178,148.400 109.400 C 148.400 105.830,149.425 105.785,152.166 109.231 C 154.137 111.711,154.471 111.694,158.167 108.934 C 161.806 106.216,161.873 105.856,159.358 102.472 C 156.706 98.902,157.721 97.725,161.799 99.641 M247.439 100.863 C 247.727 101.328,246.052 103.046,242.188 106.246 C 240.012 108.048,239.535 110.723,240.894 113.497 C 242.193 116.149,247.685 113.947,249.118 110.200 C 251.385 104.271,252.159 103.495,252.911 106.396 C 254.651 113.110,252.266 117.524,246.200 118.819 C 243.085 119.484,241.857 120.116,240.804 121.594 C 239.619 123.259,238.200 123.190,236.067 121.365 C 233.469 119.141,233.311 118.591,234.852 117.151 L 236.151 115.938 235.676 112.648 C 234.555 104.894,236.006 102.417,242.499 101.007 C 245.668 100.318,247.077 100.277,247.439 100.863 M203.000 104.200 C 203.000 105.333,202.911 105.400,201.405 105.400 C 199.758 105.400,199.230 104.741,199.763 103.352 C 200.247 102.092,203.000 102.813,203.000 104.200 M226.000 111.400 C 226.000 114.156,225.886 114.800,225.400 114.800 C 224.914 114.800,224.800 114.156,224.800 111.400 C 224.800 108.644,224.914 108.000,225.400 108.000 C 225.886 108.000,226.000 108.644,226.000 111.400 M178.000 111.206 C 178.000 112.178,177.787 112.796,177.400 112.945 C 176.911 113.132,176.800 112.762,176.800 110.938 C 176.800 108.996,176.879 108.767,177.400 109.200 C 177.739 109.482,178.000 110.354,178.000 111.206 M215.966 110.129 C 219.014 112.147,219.261 113.250,219.121 124.183 L 219.000 133.557 217.614 134.986 C 215.531 137.135,214.563 137.255,200.409 137.121 C 182.885 136.955,183.599 137.536,183.602 123.441 C 183.605 108.731,183.478 108.825,203.030 108.936 L 214.260 109.000 215.966 110.129 M191.045 116.778 C 188.767 117.094,187.608 118.222,187.586 120.144 C 187.578 120.835,187.473 123.035,187.352 125.032 C 186.863 133.140,187.173 133.356,199.545 133.538 C 210.570 133.701,212.808 133.499,214.313 132.205 L 215.400 131.270 215.400 125.047 C 215.400 116.209,215.726 116.412,201.600 116.471 C 196.870 116.491,192.120 116.629,191.045 116.778 M142.245 120.700 C 144.078 122.680,144.266 123.421,143.118 124.144 C 141.836 124.951,138.232 120.567,139.209 119.389 C 139.961 118.483,140.349 118.651,142.245 120.700 M180.426 119.649 C 181.302 121.286,180.745 126.637,179.577 127.805 L 178.560 128.822 177.580 127.779 C 176.032 126.131,176.121 121.145,177.722 119.766 C 179.104 118.577,179.835 118.545,180.426 119.649 M225.078 119.766 C 227.181 121.577,226.334 129.144,224.075 128.723 C 222.905 128.505,222.001 126.044,222.001 123.074 C 222.000 118.843,222.892 117.884,225.078 119.766 M263.725 119.748 C 264.186 120.950,260.032 126.400,258.653 126.400 C 256.439 126.400,256.223 124.475,258.262 122.917 C 259.066 122.303,260.371 121.220,261.162 120.511 C 262.731 119.104,263.401 118.905,263.725 119.748 M172.616 123.231 C 173.414 124.774,173.424 130.229,172.629 130.533 C 171.200 131.082,167.199 125.296,167.988 123.822 C 169.177 121.601,171.612 121.290,172.616 123.231 M233.871 122.900 C 235.579 124.798,234.973 126.434,231.020 130.600 C 229.977 131.700,228.537 133.500,227.820 134.600 C 226.177 137.122,225.141 138.058,224.459 137.636 C 223.470 137.025,224.102 135.088,225.600 134.138 C 228.890 132.051,228.858 132.107,229.274 127.786 C 229.711 123.253,230.289 122.000,231.939 122.000 C 232.595 122.000,233.397 122.373,233.871 122.900 M194.971 123.429 C 195.715 124.172,195.800 126.040,195.120 126.720 C 193.935 127.905,191.200 126.754,191.200 125.070 C 191.200 123.172,193.649 122.106,194.971 123.429 M210.800 123.600 C 211.807 124.607,211.820 125.677,210.835 126.568 C 209.095 128.143,206.222 126.247,207.286 124.225 C 208.146 122.589,209.540 122.340,210.800 123.600 M153.893 124.438 C 154.023 125.224,152.942 126.535,152.427 126.216 C 151.979 125.940,151.837 124.296,152.227 123.906 C 152.639 123.494,153.798 123.864,153.893 124.438 M148.243 128.100 C 149.128 129.035,150.830 130.970,152.024 132.400 C 153.219 133.830,154.947 135.810,155.865 136.800 C 160.521 141.822,163.477 146.420,161.300 145.253 C 160.458 144.802,159.767 144.035,154.397 137.591 C 152.109 134.846,150.126 132.510,149.989 132.400 C 149.116 131.694,146.000 127.465,146.000 126.984 C 146.000 126.032,146.539 126.301,148.243 128.100 M166.656 128.500 C 167.714 129.633,170.109 132.701,175.737 140.131 C 177.457 142.401,177.599 143.720,176.220 144.624 C 175.013 145.415,174.000 145.130,172.916 143.696 C 161.917 129.142,161.991 129.266,163.429 127.829 C 164.384 126.873,165.320 127.068,166.656 128.500 M239.269 127.862 C 240.630 129.094,240.106 130.164,234.568 137.452 C 228.046 146.034,227.487 146.431,225.728 143.747 C 224.952 142.561,225.039 142.420,232.313 133.100 C 237.093 126.976,237.746 126.484,239.269 127.862 M256.320 127.680 C 257.465 128.825,257.409 128.911,249.000 139.028 C 243.261 145.933,242.357 146.851,241.432 146.719 C 239.251 146.407,240.095 144.783,246.303 137.336 C 254.971 126.939,255.281 126.641,256.320 127.680 M148.001 138.700 C 148.362 139.450,148.630 142.795,148.841 149.200 C 149.344 164.469,151.499 171.021,159.527 181.703 C 163.047 186.386,163.082 186.819,160.064 188.382 C 157.691 189.611,149.476 177.246,146.257 167.600 C 143.038 157.952,142.704 140.314,145.700 138.215 C 146.940 137.347,147.396 137.443,148.001 138.700 M257.853 139.113 C 263.348 147.267,255.097 180.200,246.619 183.950 C 245.261 184.551,244.822 184.989,244.610 185.955 C 244.283 187.444,243.765 187.835,242.982 187.185 C 242.102 186.455,242.277 185.652,243.548 184.582 C 244.446 183.827,244.737 183.191,244.883 181.672 C 245.017 180.286,245.661 178.705,247.127 176.164 C 252.249 167.287,253.583 162.109,253.971 149.600 C 254.131 144.430,254.411 139.840,254.593 139.400 C 255.501 137.206,256.508 137.117,257.853 139.113 M167.935 145.551 C 168.889 146.156,168.242 147.681,166.357 149.275 C 163.060 152.064,160.626 151.193,163.278 148.172 C 165.283 145.888,166.969 144.939,167.935 145.551 M237.440 146.341 C 240.058 148.257,241.440 150.579,240.238 151.041 C 238.584 151.675,233.629 147.441,234.381 146.036 C 234.978 144.921,235.581 144.981,237.440 146.341 M223.922 147.300 C 227.341 149.564,227.336 149.533,227.370 168.200 C 227.403 186.337,227.359 186.800,225.606 186.800 C 223.733 186.800,223.680 186.353,223.536 169.375 C 223.383 151.397,223.422 151.632,220.504 150.822 C 218.466 150.256,184.334 150.256,182.296 150.822 C 179.681 151.548,179.721 151.294,179.441 169.137 C 179.179 185.861,179.074 186.800,177.466 186.800 C 175.596 186.800,175.600 186.840,175.607 168.620 C 175.616 143.822,172.925 146.044,202.830 146.139 L 222.260 146.200 223.922 147.300 M171.374 149.990 C 172.690 150.491,172.959 154.652,171.700 155.041 C 169.468 155.731,169.290 156.231,170.590 158.147 C 173.256 162.075,171.207 163.369,168.230 159.638 C 164.252 154.652,165.054 150.721,170.274 149.616 C 170.315 149.607,170.810 149.776,171.374 149.990 M233.713 150.151 C 238.464 152.184,238.492 155.484,233.800 160.537 C 231.650 162.853,230.263 161.424,231.964 158.647 C 233.179 156.665,233.146 155.966,231.800 155.212 C 230.767 154.633,230.583 154.275,230.477 152.639 C 230.289 149.741,231.171 149.063,233.713 150.151 M185.306 155.039 C 185.695 155.428,185.161 156.400,184.557 156.400 C 184.251 156.400,184.000 156.040,184.000 155.600 C 184.000 154.847,184.779 154.512,185.306 155.039 M218.800 155.800 C 218.800 156.130,218.530 156.400,218.200 156.400 C 217.870 156.400,217.600 156.130,217.600 155.800 C 217.600 155.470,217.870 155.200,218.200 155.200 C 218.530 155.200,218.800 155.470,218.800 155.800 M159.999 157.000 C 162.771 158.433,163.966 161.480,162.207 162.632 C 161.661 162.990,160.813 163.939,160.322 164.741 C 158.595 167.565,158.445 167.617,156.294 166.126 C 150.931 162.410,154.320 154.063,159.999 157.000 M246.813 157.007 C 250.217 158.767,249.872 163.816,246.175 166.358 C 244.437 167.553,244.153 167.452,242.634 165.100 C 241.888 163.945,240.900 162.773,240.439 162.497 C 237.033 160.453,243.203 155.140,246.813 157.007 M156.816 159.381 C 155.757 160.657,157.319 162.663,158.566 161.628 C 159.319 161.003,159.388 159.948,158.720 159.280 C 158.079 158.639,157.402 158.674,156.816 159.381 M244.004 159.395 C 243.327 160.211,243.823 162.000,244.728 162.000 C 246.343 162.000,247.004 159.951,245.626 159.214 C 244.633 158.683,244.591 158.687,244.004 159.395 M167.481 166.265 C 169.682 168.629,170.043 169.874,168.816 170.867 C 166.376 172.844,160.946 167.469,163.043 165.153 C 164.204 163.870,165.569 164.212,167.481 166.265 M239.226 164.814 C 240.509 165.500,240.196 167.281,238.391 169.564 C 236.659 171.755,235.665 172.081,234.089 170.977 C 231.536 169.189,236.430 163.318,239.226 164.814 M202.873 165.269 C 207.638 166.697,208.293 173.216,203.873 175.223 C 201.800 176.164,200.717 176.188,198.913 175.332 C 193.035 172.543,196.633 163.400,202.873 165.269 M200.400 167.475 C 198.207 168.312,197.689 170.926,199.382 172.618 C 201.319 174.555,204.400 173.120,204.400 170.280 C 204.400 168.304,202.225 166.779,200.400 167.475 M171.669 173.862 C 172.582 174.689,172.654 177.017,171.777 177.353 C 171.104 177.612,169.200 175.852,169.200 174.970 C 169.200 173.590,170.649 172.939,171.669 173.862 M233.132 174.733 C 233.272 175.717,232.219 177.200,231.381 177.200 C 230.839 177.200,230.400 176.326,230.400 175.247 C 230.400 173.499,232.891 173.030,233.132 174.733 M206.115 182.614 C 206.174 183.420,205.996 183.811,205.526 183.909 C 204.650 184.091,203.730 181.214,204.510 180.732 C 205.204 180.303,206.015 181.253,206.115 182.614 M185.200 184.400 C 185.200 185.310,184.197 185.490,183.870 184.639 C 183.619 183.985,183.914 183.600,184.667 183.600 C 184.960 183.600,185.200 183.960,185.200 184.400 M218.800 184.387 C 218.800 184.923,218.608 185.101,218.200 184.945 C 217.870 184.818,217.600 184.464,217.600 184.157 C 217.600 183.851,217.870 183.600,218.200 183.600 C 218.530 183.600,218.800 183.954,218.800 184.387 M238.809 190.800 C 241.175 194.545,237.226 195.628,221.000 195.685 L 208.600 195.729 208.722 194.490 C 208.906 192.629,208.069 192.400,201.088 192.400 C 194.532 192.400,193.916 192.575,193.541 194.542 C 193.407 195.247,192.727 195.285,180.124 195.307 L 166.847 195.331 165.451 194.266 C 163.205 192.553,163.149 190.708,165.329 190.275 C 168.112 189.724,238.446 190.226,238.809 190.800 M215.905 204.275 C 215.522 204.375,214.802 204.379,214.305 204.283 C 213.807 204.187,214.120 204.105,215.000 204.101 C 215.880 204.096,216.287 204.175,215.905 204.275 M199.600 206.200 C 199.600 206.876,197.230 207.060,196.580 206.434 C 196.371 206.232,195.750 205.987,195.200 205.888 C 194.650 205.790,195.415 205.684,196.900 205.654 C 199.058 205.611,199.600 205.721,199.600 206.200 M207.600 205.888 C 207.050 205.987,206.429 206.232,206.220 206.434 C 205.570 207.060,203.200 206.876,203.200 206.200 C 203.200 205.721,203.742 205.611,205.900 205.654 C 207.385 205.684,208.150 205.790,207.600 205.888 M209.379 247.992 C 210.895 248.569,212.409 254.340,212.403 259.521 C 212.401 260.688,212.658 262.848,212.974 264.321 C 213.290 265.794,213.843 269.070,214.202 271.600 C 214.562 274.130,215.225 278.450,215.677 281.200 C 216.129 283.950,216.633 287.280,216.797 288.600 C 216.961 289.920,217.282 291.720,217.511 292.600 C 219.280 299.407,218.498 301.844,214.700 301.360 C 211.294 300.926,211.056 300.693,211.339 298.058 C 211.535 296.231,211.417 295.456,210.721 294.000 C 210.248 293.010,209.687 291.804,209.473 291.319 C 208.029 288.040,202.000 290.041,202.000 293.800 C 202.000 296.310,201.017 297.378,199.270 296.766 C 197.623 296.190,196.903 296.697,197.577 297.957 C 198.063 298.864,198.660 299.003,199.579 298.422 C 200.003 298.153,200.476 298.428,201.351 299.453 C 202.260 300.517,202.759 300.797,203.441 300.626 C 204.611 300.332,205.600 300.730,205.600 301.495 C 205.600 302.141,195.880 302.071,194.315 301.414 C 192.560 300.677,193.453 297.600,195.422 297.600 C 196.884 297.600,197.059 296.585,195.785 295.489 C 194.501 294.384,194.399 292.627,195.356 288.147 C 195.679 286.636,196.050 284.050,196.181 282.400 C 196.744 275.266,201.712 248.800,202.610 248.143 C 203.480 247.507,207.848 247.410,209.379 247.992 M184.509 248.650 C 185.667 248.821,186.162 249.153,186.640 250.077 C 187.137 251.038,187.462 251.243,188.251 251.092 C 191.246 250.520,192.000 253.714,192.000 266.979 C 192.000 280.404,191.101 282.314,184.581 282.729 C 180.780 282.971,180.800 282.920,180.800 292.427 C 180.800 301.709,180.743 301.850,177.137 301.504 C 173.750 301.178,173.793 301.332,173.824 289.778 C 173.838 284.290,173.713 274.040,173.547 267.000 C 173.214 252.972,173.423 249.419,174.633 248.512 C 175.388 247.947,180.207 248.015,184.509 248.650 M167.092 250.718 C 169.914 252.202,170.061 252.816,169.922 262.522 L 169.800 271.000 168.621 273.327 C 167.568 275.405,167.501 275.748,167.994 276.527 C 169.811 279.396,169.805 279.346,169.694 289.681 C 169.633 295.416,169.761 300.333,169.999 301.398 C 170.657 304.332,170.121 304.926,166.994 304.727 C 162.456 304.438,162.185 303.579,162.513 290.556 C 162.764 280.625,162.706 280.261,160.800 279.804 C 158.504 279.254,158.459 279.483,158.306 292.525 C 158.197 301.834,158.050 304.522,157.640 304.776 C 156.926 305.217,151.938 304.806,151.240 304.249 C 150.394 303.574,151.258 251.159,152.134 250.061 C 152.921 249.073,164.970 249.603,167.092 250.718 M179.672 253.300 C 179.756 253.891,180.075 254.200,180.600 254.200 C 181.229 254.200,181.366 254.414,181.243 255.200 C 180.776 258.176,180.828 274.262,181.308 275.200 C 182.422 277.376,184.652 276.462,185.844 273.341 C 186.710 271.072,186.442 261.266,185.434 258.336 C 185.081 257.311,184.726 255.895,184.643 255.189 C 184.475 253.739,183.786 253.116,182.579 253.320 C 182.127 253.396,181.535 253.221,181.263 252.929 C 180.454 252.064,179.527 252.280,179.672 253.300 M159.195 258.206 C 157.735 259.966,157.927 271.002,159.430 271.687 C 160.749 272.287,162.362 271.752,162.814 270.563 C 163.608 268.475,163.295 259.295,162.400 258.400 C 161.452 257.452,159.899 257.357,159.195 258.206 M205.252 272.245 C 205.006 272.785,204.624 274.827,204.402 276.782 C 204.181 278.737,203.889 280.623,203.755 280.973 C 203.366 281.988,204.364 282.800,206.000 282.800 C 208.304 282.800,208.600 282.169,208.018 278.494 C 206.923 271.568,206.252 270.052,205.252 272.245 M243.410 293.358 C 244.200 293.936,244.153 294.838,242.956 302.030 C 242.480 304.888,243.754 305.165,248.321 303.197 C 249.916 302.510,250.557 302.397,250.901 302.741 C 251.738 303.578,252.437 303.222,254.729 300.793 L 257.000 298.387 261.313 298.731 C 273.747 299.725,272.160 311.441,259.348 313.231 C 256.274 313.660,255.600 314.212,255.600 316.303 C 255.600 321.452,262.107 321.426,267.904 316.254 C 270.561 313.883,271.600 313.689,271.600 315.564 C 271.600 318.798,265.609 324.394,261.420 325.074 C 255.160 326.090,247.213 316.446,249.370 310.450 C 250.574 307.104,249.925 305.293,248.204 307.195 C 247.808 307.633,246.565 308.565,245.442 309.266 C 242.727 310.962,241.595 311.994,241.127 313.200 C 240.373 315.141,238.809 323.830,238.787 326.200 C 238.717 333.851,236.709 334.967,235.210 328.187 C 234.300 324.069,234.206 320.936,234.861 316.531 L 235.323 313.429 233.261 311.583 C 230.374 308.997,230.570 308.055,234.130 307.387 C 236.296 306.980,236.664 306.126,237.478 299.611 C 238.157 294.177,238.263 293.792,239.201 293.317 C 240.524 292.648,242.464 292.666,243.410 293.358 M227.477 299.157 C 230.814 301.575,231.384 303.015,229.884 305.241 C 227.843 308.270,224.143 305.912,223.700 301.301 C 223.384 298.007,224.789 297.210,227.477 299.157 M259.128 304.877 C 257.637 306.473,255.874 309.896,256.160 310.640 C 256.775 312.242,260.623 309.443,261.867 306.491 C 263.005 303.788,261.161 302.701,259.128 304.877 M190.117 306.006 C 193.252 308.473,192.211 311.600,188.254 311.600 C 183.570 311.600,180.000 314.899,180.000 319.227 C 180.000 322.543,181.324 323.716,187.218 325.627 C 189.228 326.279,191.654 327.349,192.608 328.006 C 194.838 329.539,195.085 329.512,195.580 327.675 C 196.091 325.778,197.981 317.590,198.438 315.294 C 198.901 312.973,199.481 312.000,200.405 312.000 C 202.688 312.000,203.664 317.886,202.440 324.281 C 201.450 329.460,201.419 330.152,202.155 330.763 C 203.760 332.095,205.907 328.234,206.806 322.400 C 207.770 316.138,208.302 315.356,211.105 316.067 C 213.436 316.659,213.991 317.463,214.343 320.757 C 214.765 324.703,217.042 325.845,217.847 322.514 C 218.949 317.949,221.370 315.025,223.819 315.301 C 227.060 315.666,227.853 317.260,226.579 320.850 C 226.238 321.812,225.778 324.040,225.558 325.800 C 224.520 334.087,222.581 336.005,219.759 331.536 C 218.479 329.508,218.264 329.423,214.258 329.364 L 210.716 329.312 209.530 331.955 C 207.114 337.340,203.771 338.878,199.864 336.400 C 197.234 334.732,196.571 334.826,195.504 337.023 C 193.235 341.694,175.650 344.314,174.704 340.123 C 174.100 337.442,176.117 336.400,181.912 336.400 C 190.633 336.400,189.871 333.315,180.265 329.738 C 170.072 325.941,171.490 311.868,182.600 306.565 C 185.961 304.961,188.544 304.769,190.117 306.006 " stroke="none" fill="#1104aa" fill-rule="evenodd"></path><path id="path1" d="M184.000 56.597 C 183.670 56.670,181.780 56.944,179.800 57.205 C 147.072 61.521,120.587 85.901,112.949 118.741 C 111.016 127.051,110.887 165.429,112.763 174.000 C 119.333 204.023,141.427 227.144,170.800 234.736 C 173.751 235.499,176.154 235.940,181.907 236.777 C 185.746 237.335,216.712 237.331,221.179 236.771 C 257.982 232.161,284.388 206.730,291.161 169.376 C 291.735 166.210,291.762 127.282,291.192 124.320 C 289.366 114.822,288.387 111.432,285.495 104.600 C 275.194 80.265,253.539 62.960,226.813 57.709 C 221.850 56.734,187.422 55.840,184.000 56.597 M218.077 58.400 C 255.461 61.498,284.420 88.593,289.685 125.400 C 290.548 131.435,290.397 163.755,289.479 169.550 C 284.133 203.280,259.194 228.298,224.567 234.670 C 217.877 235.901,183.581 235.754,177.200 234.467 C 144.947 227.962,121.811 205.808,114.473 174.400 C 112.018 163.894,111.655 134.310,113.838 122.600 C 120.459 87.074,148.775 61.339,184.454 58.420 C 189.996 57.967,212.685 57.953,218.077 58.400 M192.080 89.280 C 190.608 90.752,192.128 95.420,194.835 97.737 C 201.002 103.016,211.200 99.057,211.200 91.384 C 211.200 88.670,209.110 87.492,208.568 89.900 C 207.786 93.368,207.406 94.274,206.240 95.440 C 202.188 99.492,194.466 96.551,194.409 90.933 C 194.389 88.956,193.228 88.132,192.080 89.280 M200.016 89.971 C 199.255 91.392,200.566 92.772,202.113 92.178 C 203.666 91.582,203.096 89.200,201.400 89.200 C 200.850 89.200,200.249 89.534,200.016 89.971 M178.662 98.336 C 176.851 100.191,176.852 100.298,178.717 102.119 C 180.614 103.971,180.777 103.965,182.591 101.958 L 184.075 100.315 182.737 98.925 C 180.586 96.689,180.310 96.649,178.662 98.336 M220.891 98.082 C 218.654 99.880,218.605 100.182,220.256 102.009 C 222.027 103.970,222.272 103.974,224.119 102.083 C 225.953 100.205,225.951 100.105,224.065 98.263 L 222.530 96.764 220.891 98.082 M157.746 99.397 C 157.612 99.745,158.284 101.026,159.358 102.472 C 161.873 105.856,161.806 106.216,158.167 108.934 C 154.471 111.694,154.137 111.711,152.166 109.231 C 149.425 105.785,148.400 105.830,148.400 109.400 C 148.400 114.178,153.438 119.200,158.232 119.200 C 158.868 119.200,159.937 119.858,161.159 121.000 C 163.559 123.245,164.444 123.271,166.900 121.166 C 169.040 119.332,169.211 118.559,167.932 116.490 C 167.133 115.198,167.101 114.903,167.532 112.818 C 168.517 108.048,167.773 104.667,165.162 102.056 C 162.537 99.431,158.314 97.917,157.746 99.397 M242.499 101.007 C 236.006 102.417,234.555 104.894,235.676 112.648 L 236.151 115.938 234.852 117.151 C 233.311 118.591,233.469 119.141,236.067 121.365 C 238.200 123.190,239.619 123.259,240.804 121.594 C 241.857 120.116,243.085 119.484,246.200 118.819 C 252.266 117.524,254.651 113.110,252.911 106.396 C 252.159 103.495,251.385 104.271,249.118 110.200 C 247.685 113.947,242.193 116.149,240.894 113.497 C 239.535 110.723,240.012 108.048,242.188 106.246 C 249.053 100.560,249.112 99.570,242.499 101.007 M199.763 103.352 C 199.230 104.741,199.758 105.400,201.405 105.400 C 202.911 105.400,203.000 105.333,203.000 104.200 C 203.000 102.813,200.247 102.092,199.763 103.352 M224.800 111.400 C 224.800 114.156,224.914 114.800,225.400 114.800 C 225.886 114.800,226.000 114.156,226.000 111.400 C 226.000 108.644,225.886 108.000,225.400 108.000 C 224.914 108.000,224.800 108.644,224.800 111.400 M176.800 110.938 C 176.800 112.762,176.911 113.132,177.400 112.945 C 177.787 112.796,178.000 112.178,178.000 111.206 C 178.000 110.354,177.739 109.482,177.400 109.200 C 176.879 108.767,176.800 108.996,176.800 110.938 M189.722 109.190 C 184.415 110.000,183.605 111.889,183.602 123.441 C 183.599 137.536,182.885 136.955,200.409 137.121 C 214.563 137.255,215.531 137.135,217.614 134.986 L 219.000 133.557 219.121 124.183 C 219.261 113.250,219.014 112.147,215.966 110.129 L 214.260 109.000 203.030 108.936 C 196.854 108.901,190.865 109.015,189.722 109.190 M211.943 116.772 C 215.186 117.398,215.400 117.909,215.400 125.047 L 215.400 131.270 214.313 132.205 C 212.808 133.499,210.570 133.701,199.545 133.538 C 187.173 133.356,186.863 133.140,187.352 125.032 C 187.473 123.035,187.578 120.835,187.586 120.144 C 187.608 118.222,188.767 117.094,191.045 116.778 C 193.899 116.382,209.903 116.377,211.943 116.772 M139.209 119.389 C 138.232 120.567,141.836 124.951,143.118 124.144 C 144.266 123.421,144.078 122.680,142.245 120.700 C 140.349 118.651,139.961 118.483,139.209 119.389 M177.722 119.766 C 176.121 121.145,176.032 126.131,177.580 127.779 L 178.560 128.822 179.577 127.805 C 180.461 126.921,180.613 126.374,180.737 123.642 C 180.949 118.978,180.022 117.786,177.722 119.766 M222.414 119.574 C 221.201 121.841,222.393 128.410,224.075 128.723 C 226.334 129.144,227.181 121.577,225.078 119.766 C 223.721 118.598,222.965 118.544,222.414 119.574 M261.162 120.511 C 260.371 121.220,259.066 122.303,258.262 122.917 C 256.223 124.475,256.439 126.400,258.653 126.400 C 260.032 126.400,264.186 120.950,263.725 119.748 C 263.401 118.905,262.731 119.104,261.162 120.511 M169.482 122.329 C 167.024 123.820,167.280 125.569,170.463 129.022 C 172.669 131.415,173.200 131.088,173.200 127.337 C 173.200 122.767,171.821 120.909,169.482 122.329 M230.239 122.900 C 229.920 123.395,229.486 125.594,229.274 127.786 C 228.858 132.107,228.890 132.051,225.600 134.138 C 224.102 135.088,223.470 137.025,224.459 137.636 C 225.141 138.058,226.177 137.122,227.820 134.600 C 228.537 133.500,229.977 131.700,231.020 130.600 C 233.507 127.979,235.207 125.299,234.914 124.464 C 234.454 123.155,233.060 122.000,231.939 122.000 C 231.215 122.000,230.613 122.319,230.239 122.900 M191.862 123.531 C 190.509 125.027,191.569 127.200,193.651 127.200 C 194.939 127.200,195.600 126.504,195.600 125.149 C 195.600 123.032,193.239 122.010,191.862 123.531 M208.160 123.106 C 206.431 124.261,206.945 126.899,208.945 127.130 C 210.234 127.279,211.600 126.254,211.600 125.138 C 211.600 123.597,209.384 122.289,208.160 123.106 M152.227 123.906 C 151.837 124.296,151.979 125.940,152.427 126.216 C 152.942 126.535,154.023 125.224,153.893 124.438 C 153.798 123.864,152.639 123.494,152.227 123.906 M146.000 126.984 C 146.000 127.465,149.116 131.694,149.989 132.400 C 150.126 132.510,152.109 134.846,154.397 137.591 C 159.767 144.035,160.458 144.802,161.300 145.253 C 163.477 146.420,160.521 141.822,155.865 136.800 C 154.947 135.810,153.219 133.830,152.024 132.400 C 147.603 127.107,146.000 125.666,146.000 126.984 M163.429 127.829 C 162.199 129.058,162.744 130.229,167.444 136.451 C 169.998 139.833,172.461 143.093,172.916 143.696 C 174.000 145.130,175.013 145.415,176.220 144.624 C 177.599 143.720,177.457 142.401,175.737 140.131 C 165.376 126.452,165.090 126.167,163.429 127.829 M232.313 133.100 C 225.039 142.420,224.952 142.561,225.728 143.747 C 227.487 146.431,228.046 146.034,234.568 137.452 C 240.106 130.164,240.630 129.094,239.269 127.862 C 237.746 126.484,237.093 126.976,232.313 133.100 M253.674 128.700 C 248.458 134.205,240.361 144.536,240.477 145.536 C 240.842 148.690,242.344 147.273,254.700 132.121 C 256.832 129.508,257.183 128.543,256.320 127.680 C 255.579 126.939,255.205 127.083,253.674 128.700 M145.700 138.215 C 142.704 140.314,143.038 157.952,146.257 167.600 C 149.476 177.246,157.691 189.611,160.064 188.382 C 163.082 186.819,163.047 186.386,159.527 181.703 C 151.499 171.021,149.344 164.469,148.841 149.200 C 148.469 137.913,148.079 136.549,145.700 138.215 M255.325 138.083 C 254.410 139.263,254.249 140.629,253.971 149.600 C 253.583 162.109,252.249 167.287,247.127 176.164 C 245.661 178.705,245.017 180.286,244.883 181.672 C 244.737 183.191,244.446 183.827,243.548 184.582 C 242.277 185.652,242.102 186.455,242.982 187.185 C 243.765 187.835,244.283 187.444,244.610 185.955 C 244.822 184.989,245.261 184.551,246.619 183.950 C 254.084 180.648,260.531 159.598,259.019 143.463 C 258.630 139.314,256.630 136.401,255.325 138.083 M165.800 145.935 C 162.611 147.879,161.049 151.086,163.373 150.917 C 165.836 150.737,169.436 146.503,167.935 145.551 C 167.211 145.092,167.169 145.100,165.800 145.935 M234.381 146.036 C 233.629 147.441,238.584 151.675,240.238 151.041 C 241.440 150.579,240.058 148.257,237.440 146.341 C 235.581 144.981,234.978 144.921,234.381 146.036 M181.506 146.356 C 175.820 147.194,175.614 147.970,175.607 168.620 C 175.600 186.840,175.596 186.800,177.466 186.800 C 179.074 186.800,179.179 185.861,179.441 169.137 C 179.721 151.294,179.681 151.548,182.296 150.822 C 184.334 150.256,218.466 150.256,220.504 150.822 C 223.422 151.632,223.383 151.397,223.536 169.375 C 223.680 186.353,223.733 186.800,225.606 186.800 C 227.359 186.800,227.403 186.337,227.370 168.200 C 227.336 149.533,227.341 149.564,223.922 147.300 L 222.260 146.200 202.830 146.139 C 192.143 146.105,182.547 146.203,181.506 146.356 M169.000 150.167 C 164.638 152.114,164.415 154.856,168.230 159.638 C 171.207 163.369,173.256 162.075,170.590 158.147 C 169.290 156.231,169.468 155.731,171.700 155.041 C 173.547 154.471,172.166 149.215,170.274 149.616 C 170.233 149.624,169.660 149.872,169.000 150.167 M230.826 150.169 C 229.863 151.329,230.469 154.466,231.800 155.212 C 233.146 155.966,233.179 156.665,231.964 158.647 C 231.048 160.142,231.000 160.936,231.786 161.588 C 232.974 162.574,237.817 156.235,237.419 154.214 C 236.864 151.394,232.190 148.526,230.826 150.169 M184.000 155.600 C 184.000 156.510,185.003 156.690,185.330 155.839 C 185.581 155.185,185.286 154.800,184.533 154.800 C 184.240 154.800,184.000 155.160,184.000 155.600 M217.600 155.800 C 217.600 156.130,217.870 156.400,218.200 156.400 C 218.530 156.400,218.800 156.130,218.800 155.800 C 218.800 155.470,218.530 155.200,218.200 155.200 C 217.870 155.200,217.600 155.470,217.600 155.800 M154.960 157.760 C 152.577 160.143,153.187 163.973,156.294 166.126 C 158.445 167.617,158.595 167.565,160.322 164.741 C 160.813 163.939,161.661 162.990,162.207 162.632 C 163.475 161.801,163.467 160.625,162.179 158.937 C 159.996 156.074,157.115 155.605,154.960 157.760 M241.347 158.147 C 239.374 160.121,239.051 161.664,240.439 162.497 C 240.900 162.773,241.888 163.945,242.634 165.100 C 244.153 167.452,244.437 167.553,246.175 166.358 C 250.932 163.088,249.718 156.400,244.367 156.400 C 243.398 156.400,242.678 156.817,241.347 158.147 M158.720 159.280 C 159.388 159.948,159.319 161.003,158.566 161.628 C 157.319 162.663,155.757 160.657,156.816 159.381 C 157.402 158.674,158.079 158.639,158.720 159.280 M245.626 159.214 C 247.004 159.951,246.343 162.000,244.728 162.000 C 243.823 162.000,243.327 160.211,244.004 159.395 C 244.591 158.687,244.633 158.683,245.626 159.214 M163.043 165.153 C 160.946 167.469,166.376 172.844,168.816 170.867 C 170.043 169.874,169.682 168.629,167.481 166.265 C 165.569 164.212,164.204 163.870,163.043 165.153 M235.031 166.493 C 232.525 169.358,232.898 171.600,235.880 171.600 C 238.200 171.600,241.062 165.796,239.226 164.814 C 237.759 164.029,236.879 164.381,235.031 166.493 M199.380 165.363 C 195.079 167.236,194.792 173.376,198.913 175.332 C 204.200 177.841,209.423 171.415,205.619 167.083 C 203.894 165.118,201.474 164.451,199.380 165.363 M203.700 168.293 C 205.414 169.838,203.783 173.600,201.400 173.600 C 199.902 173.600,198.400 171.938,198.400 170.280 C 198.400 167.591,201.593 166.394,203.700 168.293 M169.829 173.829 C 168.960 174.697,169.039 175.310,170.177 176.538 C 171.429 177.888,172.400 177.574,172.400 175.819 C 172.400 173.817,170.957 172.700,169.829 173.829 M230.895 174.065 C 230.053 174.907,230.408 177.200,231.381 177.200 C 232.219 177.200,233.272 175.717,233.132 174.733 C 232.982 173.675,231.675 173.285,230.895 174.065 M204.510 180.732 C 203.730 181.214,204.650 184.091,205.526 183.909 C 205.996 183.811,206.174 183.420,206.115 182.614 C 206.015 181.253,205.204 180.303,204.510 180.732 M183.894 183.839 C 183.505 184.228,184.039 185.200,184.643 185.200 C 184.949 185.200,185.200 184.840,185.200 184.400 C 185.200 183.647,184.421 183.312,183.894 183.839 M217.600 184.157 C 217.600 184.464,217.870 184.818,218.200 184.945 C 218.608 185.101,218.800 184.923,218.800 184.387 C 218.800 183.954,218.530 183.600,218.200 183.600 C 217.870 183.600,217.600 183.851,217.600 184.157 M165.329 190.275 C 163.149 190.708,163.205 192.553,165.451 194.266 L 166.847 195.331 180.124 195.307 C 192.727 195.285,193.407 195.247,193.541 194.542 C 193.916 192.575,194.532 192.400,201.088 192.400 C 208.069 192.400,208.906 192.629,208.722 194.490 L 208.600 195.729 221.000 195.685 C 237.226 195.628,241.175 194.545,238.809 190.800 C 238.446 190.226,168.112 189.724,165.329 190.275 M214.305 204.283 C 214.802 204.379,215.522 204.375,215.905 204.275 C 216.287 204.175,215.880 204.096,215.000 204.101 C 214.120 204.105,213.807 204.187,214.305 204.283 M195.200 205.888 C 195.750 205.987,196.371 206.232,196.580 206.434 C 197.230 207.060,199.600 206.876,199.600 206.200 C 199.600 205.721,199.058 205.611,196.900 205.654 C 195.415 205.684,194.650 205.790,195.200 205.888 M203.200 206.200 C 203.200 206.876,205.570 207.060,206.220 206.434 C 206.429 206.232,207.050 205.987,207.600 205.888 C 208.150 205.790,207.385 205.684,205.900 205.654 C 203.742 205.611,203.200 205.721,203.200 206.200 M202.610 248.143 C 201.712 248.800,196.744 275.266,196.181 282.400 C 196.050 284.050,195.679 286.636,195.356 288.147 C 194.399 292.627,194.501 294.384,195.785 295.489 C 197.059 296.585,196.884 297.600,195.422 297.600 C 193.453 297.600,192.560 300.677,194.315 301.414 C 195.880 302.071,205.600 302.141,205.600 301.495 C 205.600 300.730,204.611 300.332,203.441 300.626 C 202.759 300.797,202.260 300.517,201.351 299.453 C 200.476 298.428,200.003 298.153,199.579 298.422 C 198.660 299.003,198.063 298.864,197.577 297.957 C 196.903 296.697,197.623 296.190,199.270 296.766 C 201.017 297.378,202.000 296.310,202.000 293.800 C 202.000 290.041,208.029 288.040,209.473 291.319 C 209.687 291.804,210.248 293.010,210.721 294.000 C 211.417 295.456,211.535 296.231,211.339 298.058 C 211.056 300.693,211.294 300.926,214.700 301.360 C 218.498 301.844,219.280 299.407,217.511 292.600 C 217.282 291.720,216.961 289.920,216.797 288.600 C 216.633 287.280,216.129 283.950,215.677 281.200 C 215.225 278.450,214.562 274.130,214.202 271.600 C 213.843 269.070,213.290 265.794,212.974 264.321 C 212.658 262.848,212.401 260.688,212.403 259.521 C 212.405 257.288,211.374 250.837,210.767 249.292 C 210.123 247.654,204.385 246.846,202.610 248.143 M174.633 248.512 C 173.423 249.419,173.214 252.972,173.547 267.000 C 173.713 274.040,173.838 284.290,173.824 289.778 C 173.793 301.332,173.750 301.178,177.137 301.504 C 180.743 301.850,180.800 301.709,180.800 292.427 C 180.800 282.920,180.780 282.971,184.581 282.729 C 191.101 282.314,192.000 280.404,192.000 266.979 C 192.000 253.714,191.246 250.520,188.251 251.092 C 187.462 251.243,187.137 251.038,186.640 250.077 C 185.936 248.716,185.412 248.583,179.200 248.183 C 176.226 247.991,175.233 248.063,174.633 248.512 M152.134 250.061 C 151.258 251.159,150.394 303.574,151.240 304.249 C 151.938 304.806,156.926 305.217,157.640 304.776 C 158.050 304.522,158.197 301.834,158.306 292.525 C 158.459 279.483,158.504 279.254,160.800 279.804 C 162.706 280.261,162.764 280.625,162.513 290.556 C 162.185 303.579,162.456 304.438,166.994 304.727 C 170.121 304.926,170.657 304.332,169.999 301.398 C 169.761 300.333,169.633 295.416,169.694 289.681 C 169.805 279.346,169.811 279.396,167.994 276.527 C 167.501 275.748,167.568 275.405,168.621 273.327 L 169.800 271.000 169.922 262.522 C 170.061 252.816,169.914 252.202,167.092 250.718 C 164.970 249.603,152.921 249.073,152.134 250.061 M181.263 252.929 C 181.535 253.221,182.127 253.396,182.579 253.320 C 183.786 253.116,184.475 253.739,184.643 255.189 C 184.726 255.895,185.081 257.311,185.434 258.336 C 186.442 261.266,186.710 271.072,185.844 273.341 C 184.652 276.462,182.422 277.376,181.308 275.200 C 180.828 274.262,180.776 258.176,181.243 255.200 C 181.366 254.414,181.229 254.200,180.600 254.200 C 180.075 254.200,179.756 253.891,179.672 253.300 C 179.527 252.280,180.454 252.064,181.263 252.929 M162.400 258.400 C 163.295 259.295,163.608 268.475,162.814 270.563 C 161.589 273.784,158.580 272.160,158.304 268.128 C 157.726 259.696,159.495 255.495,162.400 258.400 M207.138 273.533 C 208.829 281.615,208.683 282.800,206.000 282.800 C 204.364 282.800,203.366 281.988,203.755 280.973 C 203.889 280.623,204.181 278.737,204.402 276.782 C 205.042 271.131,206.319 269.615,207.138 273.533 M239.201 293.317 C 238.263 293.792,238.157 294.177,237.478 299.611 C 236.664 306.126,236.296 306.980,234.130 307.387 C 230.570 308.055,230.374 308.997,233.261 311.583 L 235.323 313.429 234.861 316.531 C 234.206 320.936,234.300 324.069,235.210 328.187 C 236.709 334.967,238.717 333.851,238.787 326.200 C 238.809 323.830,240.373 315.141,241.127 313.200 C 241.595 311.994,242.727 310.962,245.442 309.266 C 246.565 308.565,247.808 307.633,248.204 307.195 C 249.925 305.293,250.574 307.104,249.370 310.450 C 247.213 316.446,255.160 326.090,261.420 325.074 C 265.609 324.394,271.600 318.798,271.600 315.564 C 271.600 313.689,270.561 313.883,267.904 316.254 C 262.107 321.426,255.600 321.452,255.600 316.303 C 255.600 314.212,256.274 313.660,259.348 313.231 C 272.160 311.441,273.747 299.725,261.313 298.731 L 257.000 298.387 254.729 300.793 C 252.437 303.222,251.738 303.578,250.901 302.741 C 250.557 302.397,249.916 302.510,248.321 303.197 C 243.754 305.165,242.480 304.888,242.956 302.030 C 244.491 292.812,243.722 291.030,239.201 293.317 M224.185 298.672 C 222.315 300.542,224.927 306.600,227.603 306.600 C 230.132 306.600,231.546 303.457,229.937 301.411 C 227.819 298.719,225.326 297.532,224.185 298.672 M261.995 304.391 C 262.587 305.496,261.725 307.379,259.658 309.500 C 256.850 312.381,255.204 311.543,256.941 308.117 C 258.855 304.339,261.087 302.694,261.995 304.391 M182.600 306.565 C 171.490 311.868,170.072 325.941,180.265 329.738 C 189.871 333.315,190.633 336.400,181.912 336.400 C 176.117 336.400,174.100 337.442,174.704 340.123 C 175.650 344.314,193.235 341.694,195.504 337.023 C 196.571 334.826,197.234 334.732,199.864 336.400 C 203.771 338.878,207.114 337.340,209.530 331.955 L 210.716 329.312 214.258 329.364 C 218.264 329.423,218.479 329.508,219.759 331.536 C 222.581 336.005,224.520 334.087,225.558 325.800 C 225.778 324.040,226.238 321.812,226.579 320.850 C 227.853 317.260,227.060 315.666,223.819 315.301 C 221.370 315.025,218.949 317.949,217.847 322.514 C 217.042 325.845,214.765 324.703,214.343 320.757 C 213.991 317.463,213.436 316.659,211.105 316.067 C 208.302 315.356,207.770 316.138,206.806 322.400 C 205.907 328.234,203.760 332.095,202.155 330.763 C 201.419 330.152,201.450 329.460,202.440 324.281 C 203.664 317.886,202.688 312.000,200.405 312.000 C 199.481 312.000,198.901 312.973,198.438 315.294 C 197.981 317.590,196.091 325.778,195.580 327.675 C 195.085 329.512,194.838 329.539,192.608 328.006 C 191.654 327.349,189.228 326.279,187.218 325.627 C 181.324 323.716,180.000 322.543,180.000 319.227 C 180.000 314.899,183.570 311.600,188.254 311.600 C 191.420 311.600,192.397 310.615,191.607 308.221 C 190.510 304.896,187.324 304.310,182.600 306.565 " stroke="none" fill="#eecbba" fill-rule="evenodd"></path></g></svg>