<?xml version="1.1" standalone="no"?>
<!DOCTYPE svg PUBLIC "-//W3C//DTD SVG 20010904//EN"
 "http://www.w3.org/TR/2001/REC-SVG-20010904/DTD/svg10.dtd">
<svg version="1.0" xmlns="http://www.w3.org/2000/svg"
 width="900.000000pt" height="900.000000pt" viewBox="0 0 900.000000 900.000000"
 preserveAspectRatio="xMidYMid meet">
<metadata>
Created by potrace 1.10, written by Peter Selinger 2001-2011
</metadata>
<g transform="translate(0.000000,900.000000) scale(0.100000,-0.100000)"
fill="#ffffff" stroke="none">
<path d="M0 4500 l0 -4500 4500 0 4500 0 0 4500 0 4500 -4500 0 -4500 0 0
-4500z m4905 3219 c33 -5 101 -16 150 -24 162 -25 258 -51 395 -107 74 -31
117 -52 250 -125 14 -8 55 -35 91 -61 281 -199 515 -487 630 -777 51 -127 73
-197 93 -290 46 -221 46 -214 46 -655 0 -257 -4 -439 -10 -460 -6 -19 -15 -64
-20 -100 -10 -63 -15 -85 -47 -200 -47 -167 -170 -416 -255 -515 -16 -18 -28
-36 -28 -39 0 -4 -24 -35 -53 -69 -29 -34 -62 -72 -72 -85 -21 -24 -154 -144
-220 -197 -128 -102 -373 -230 -530 -275 -16 -5 -55 -16 -85 -25 -180 -54
-295 -65 -707 -65 -316 0 -388 3 -506 20 -126 18 -203 36 -265 61 -13 5 -31 9
-40 9 -9 0 -30 7 -46 15 -15 8 -33 15 -38 15 -24 0 -197 86 -299 148 -133 83
-202 137 -319 252 -74 72 -240 273 -240 290 0 4 -16 32 -36 61 -31 47 -62 106
-120 234 -19 42 -68 197 -89 280 -29 116 -34 176 -41 530 -8 369 6 676 32 727
8 15 14 38 14 51 0 26 52 199 77 257 75 171 150 302 230 402 29 37 53 69 53
72 0 2 37 43 83 91 85 90 172 163 305 258 28 20 55 37 58 37 3 0 26 14 51 30
24 17 48 30 52 30 4 0 28 10 52 23 24 12 71 33 104 45 33 13 68 28 77 33 10 5
34 13 55 18 21 5 72 19 113 29 41 11 113 25 160 32 47 6 105 15 130 19 69 13
696 12 765 0z m-220 -4307 l50 -7 8 -50 c4 -27 12 -99 17 -160 6 -60 13 -117
17 -125 9 -23 32 -164 43 -269 6 -51 15 -101 20 -111 6 -10 10 -34 10 -52 0
-18 7 -71 16 -118 8 -47 20 -119 25 -160 5 -41 12 -92 15 -112 l6 -38 -76 0
c-71 0 -77 2 -93 26 -16 25 -16 28 -1 55 16 28 16 31 -20 101 l-37 73 -56 0
c-80 0 -89 -11 -89 -106 0 -46 -4 -79 -10 -79 -5 0 -10 4 -10 8 0 14 -77 45
-90 37 -6 -4 -22 3 -36 16 -19 18 -24 32 -24 75 0 29 5 65 12 81 6 15 15 69
18 118 9 118 30 247 72 439 6 26 14 74 18 105 10 71 30 199 36 228 6 31 52 39
159 25z m-493 -42 c19 -20 35 -28 54 -27 21 1 29 -3 32 -18 2 -11 10 -27 17
-35 10 -12 14 -79 15 -289 l1 -274 -52 -49 c-52 -49 -65 -53 -141 -49 -33 2
-39 -1 -49 -26 -13 -29 -15 -271 -4 -321 4 -21 0 -36 -16 -56 -21 -26 -26 -28
-73 -22 -63 7 -88 34 -80 86 3 19 5 53 5 75 -1 40 -1 278 0 365 0 25 -2 181
-6 346 -6 279 -5 303 11 319 16 15 31 17 138 11 117 -7 122 -8 148 -36z m-480
-6 c65 -19 94 -46 104 -99 3 -18 2 -116 -3 -218 -8 -166 -11 -187 -31 -212
-28 -35 -27 -45 1 -81 21 -28 22 -35 23 -281 1 -182 5 -262 15 -285 11 -28 11
-32 -9 -48 -34 -28 -110 -16 -140 20 -23 29 -24 33 -25 277 l-2 248 -42 3 -43
3 0 -178 c0 -98 -4 -195 -9 -215 -5 -23 -5 -54 1 -78 8 -32 7 -45 -6 -64 -19
-30 -9 -39 37 -34 23 2 32 -1 32 -12 0 -25 -77 -26 -100 0 -13 15 -30 20 -65
20 -30 0 -52 6 -60 15 -10 12 -11 97 -6 383 8 510 16 803 22 830 4 21 8 22
126 22 82 0 141 -5 180 -16z m1751 -970 c22 -7 23 -67 2 -147 -17 -64 -19
-103 -7 -111 11 -7 93 14 117 31 11 7 30 13 43 13 21 0 23 -3 17 -27 -3 -16
-14 -32 -23 -37 -9 -6 -30 -25 -47 -43 -16 -19 -49 -43 -72 -55 -70 -35 -82
-57 -103 -185 -4 -29 -13 -67 -18 -85 -6 -18 -13 -80 -16 -138 -4 -57 -10
-108 -16 -114 -18 -18 -40 3 -40 38 0 19 -5 47 -11 63 -20 52 -27 138 -17 233
5 52 7 103 4 115 -3 11 -24 31 -46 44 -63 39 -64 66 -2 76 20 4 44 9 53 11 27
7 48 82 55 197 5 82 10 110 22 116 18 10 78 13 105 5z m-1093 -100 c0 -19 19
-18 26 1 9 23 31 18 38 -10 7 -26 20 -32 31 -15 8 13 47 2 58 -16 4 -8 25 -14
45 -14 24 -1 47 -9 67 -25 l30 -25 -30 -1 c-78 -5 -252 7 -281 18 -14 5 -19
67 -8 97 7 18 24 12 24 -10z m738 -36 c61 -43 71 -56 72 -94 0 -24 -9 -40 -37
-64 l-37 -33 -33 38 c-39 45 -56 101 -47 150 8 44 23 44 82 3z m854 -4 c71
-27 93 -56 93 -117 0 -45 -5 -59 -33 -94 -42 -54 -126 -94 -208 -101 -68 -5
-74 -11 -74 -79 0 -53 28 -73 103 -73 70 0 107 19 187 98 24 23 49 42 56 42
39 0 8 -95 -52 -160 -48 -52 -128 -93 -180 -93 -103 0 -234 116 -259 231 -12
58 36 209 85 264 8 9 31 35 50 57 l35 41 77 0 c48 0 94 -6 120 -16z m-1688
-156 c37 -32 44 -80 17 -107 -17 -17 -33 -21 -86 -21 -76 0 -105 -15 -141 -72
-33 -52 -34 -138 -1 -168 26 -25 77 -48 165 -75 37 -12 82 -36 109 -58 52 -43
63 -38 63 29 0 23 14 94 30 159 17 65 30 126 30 136 0 11 9 28 20 39 33 33 56
9 70 -69 15 -88 15 -93 -5 -191 -25 -127 -25 -154 2 -158 16 -2 28 7 46 35 24
37 36 77 56 196 16 88 31 113 66 109 78 -7 95 -27 95 -113 0 -28 5 -59 10 -70
10 -18 13 -18 40 -4 18 9 30 23 30 35 0 20 14 51 37 80 6 8 13 25 15 38 7 53
95 67 149 23 l22 -17 -27 -80 c-14 -43 -26 -99 -26 -123 0 -46 -27 -159 -41
-175 -15 -16 -61 16 -91 64 l-28 45 -68 0 c-37 0 -73 2 -80 5 -14 5 -21 -4
-40 -50 -34 -81 -47 -103 -68 -110 -12 -5 -25 -14 -29 -19 -10 -18 -115 -14
-121 4 -4 8 -11 15 -16 15 -5 0 -21 9 -35 20 -30 23 -43 18 -43 -15 0 -45 -48
-84 -143 -115 -96 -33 -140 -35 -257 -17 -73 12 -75 13 -78 42 -2 23 4 37 23
55 25 24 33 25 145 25 65 0 121 3 124 6 3 3 7 16 8 29 3 22 -8 30 -89 71 -50
26 -102 49 -115 52 -28 7 -76 50 -103 92 -17 25 -20 46 -19 123 1 55 6 98 13
105 6 6 11 18 11 27 0 8 24 39 53 69 101 106 241 152 301 99z"/>
<path d="M4075 7670 c-162 -23 -348 -69 -432 -106 -17 -8 -34 -14 -37 -14 -20
0 -214 -103 -281 -148 -202 -139 -326 -256 -455 -432 -103 -140 -109 -150
-200 -345 -21 -44 -63 -163 -76 -215 -62 -238 -59 -205 -58 -730 0 -461 1
-490 21 -575 49 -201 68 -260 129 -393 19 -40 34 -74 34 -77 0 -20 161 -259
219 -325 247 -279 484 -432 859 -554 30 -10 75 -21 100 -26 26 -4 88 -16 137
-26 78 -16 144 -18 490 -18 399 -1 400 -1 540 28 308 62 608 195 799 356 139
116 328 330 403 455 16 28 124 245 133 270 4 11 14 38 23 60 8 22 23 69 32
105 10 36 23 85 30 110 54 187 54 1061 0 1225 -7 22 -18 65 -25 95 -15 65 -47
162 -66 199 -8 14 -14 30 -14 34 0 21 -131 265 -160 300 -6 7 -27 34 -48 62
-154 207 -391 403 -624 517 -54 27 -100 48 -104 48 -3 0 -20 6 -37 14 -93 40
-241 76 -432 106 -69 11 -824 11 -900 0z m289 -686 c3 -9 6 -29 6 -44 0 -79
68 -140 156 -140 77 0 144 58 144 125 0 57 10 76 38 73 49 -6 46 -106 -5 -176
-113 -152 -370 -97 -399 85 -9 61 1 93 30 93 13 0 27 -7 30 -16z m190 -16 c23
-38 -36 -77 -64 -43 -10 12 -10 21 -1 41 13 29 47 30 65 2z m-484 -158 c0 -6
16 -26 35 -45 l34 -35 -42 -44 -42 -44 -30 33 c-16 18 -39 36 -49 39 -10 4
-17 8 -15 11 2 2 22 24 44 49 38 43 65 58 65 36z m969 -37 c39 -43 42 -48 26
-58 -10 -5 -29 -22 -43 -37 -14 -16 -30 -28 -36 -27 -6 0 -26 18 -44 40 l-34
38 39 45 c21 25 40 45 43 46 2 0 24 -21 49 -47z m-1400 -28 c53 -27 96 -72
118 -124 15 -34 14 -136 -2 -192 -5 -20 0 -37 21 -68 l27 -42 -38 -39 c-21
-21 -52 -46 -69 -54 -31 -15 -31 -15 -69 29 -32 37 -46 45 -95 55 -31 7 -68
18 -82 25 -74 38 -135 143 -128 222 4 56 32 51 86 -17 25 -30 49 -56 53 -58 4
-2 42 22 83 54 57 42 76 62 76 80 0 13 -6 27 -13 31 -19 12 -77 95 -77 110 0
21 56 15 109 -12z m1936 -15 c7 -11 -14 -33 -114 -115 l-73 -59 7 -56 c12 -96
23 -103 114 -74 60 20 70 33 107 142 20 60 32 82 43 80 21 -4 29 -39 30 -137
1 -67 -3 -90 -19 -115 -24 -39 -78 -70 -149 -85 -67 -14 -102 -34 -123 -72
-20 -34 -32 -31 -101 21 -66 50 -71 74 -21 101 25 13 26 15 17 79 -12 95 -8
176 11 205 21 33 66 55 151 76 83 20 112 22 120 9z m-1007 -82 c3 -22 -2 -29
-22 -34 -36 -9 -60 -1 -64 19 -7 36 6 48 45 45 33 -3 38 -7 41 -30z m-570
-166 c3 -87 2 -92 -18 -92 -19 0 -20 6 -20 88 0 49 3 92 7 96 19 19 28 -8 31
-92z m1086 76 c9 -36 7 -166 -3 -172 -5 -4 -16 -3 -25 0 -13 5 -16 23 -16 93
0 48 3 91 7 94 13 14 31 6 37 -15z m-266 -26 c37 -11 91 -71 99 -111 4 -20 7
-121 7 -226 1 -181 0 -192 -22 -226 -40 -65 -64 -69 -388 -69 -307 0 -314 1
-364 55 l-25 27 0 234 0 234 37 36 c23 23 50 40 75 44 47 9 549 10 581 2z
m-1619 -263 c35 -41 41 -52 31 -64 -21 -26 -47 -17 -84 29 -74 89 -24 123 53
35z m857 27 c14 -56 -19 -250 -41 -243 -25 8 -54 93 -54 159 -1 61 1 68 27 87
37 28 60 26 68 -3z m1004 -6 c32 -30 33 -33 27 -89 -6 -58 -32 -129 -52 -143
-17 -13 -25 -9 -25 15 0 12 -7 40 -15 62 -15 41 -19 123 -9 163 9 31 36 28 74
-8z m870 3 c0 -17 -15 -45 -40 -74 -22 -26 -40 -52 -40 -57 0 -11 -24 -22 -48
-22 -10 0 -23 9 -30 20 -16 26 -2 54 36 74 15 8 43 30 61 50 42 43 61 46 61 9z
m-2062 -63 c18 -24 22 -43 22 -110 0 -72 -2 -81 -17 -78 -21 4 -113 122 -113
144 0 17 58 74 75 74 6 0 21 -13 33 -30z m1382 -6 c44 -40 43 -48 -9 -110 -14
-17 -64 -79 -110 -138 -87 -111 -105 -121 -99 -51 3 33 8 41 42 58 56 29 76
68 76 150 0 54 5 75 21 98 11 16 25 29 30 29 5 0 27 -16 49 -36z m-1766 6 c10
-10 -24 -90 -47 -108 -12 -11 -19 -8 -36 14 -24 31 -25 39 -10 83 11 31 14 32
48 26 20 -4 40 -10 45 -15z m2172 -15 c9 -29 8 -40 -7 -65 -19 -31 -49 -41
-49 -16 0 7 -11 30 -25 51 -15 20 -25 38 -23 39 18 11 57 25 73 25 14 1 23 -9
31 -34z m-2281 -153 c33 -42 67 -83 75 -92 14 -14 121 -138 176 -204 26 -31
32 -66 11 -66 -13 0 -50 42 -247 275 -46 55 -95 111 -107 125 -22 24 -29 50
-17 63 11 10 46 -23 109 -101z m361 46 c17 -18 37 -43 45 -54 8 -12 55 -75
105 -140 49 -66 94 -125 98 -132 10 -16 -30 -62 -54 -62 -16 0 -52 34 -81 76
-8 12 -56 76 -106 142 -51 67 -93 131 -93 142 0 19 34 59 51 60 3 0 19 -15 35
-32z m1624 22 c30 -16 43 -46 30 -70 -28 -52 -254 -335 -270 -338 -26 -4 -70
36 -63 57 11 29 268 361 280 361 2 0 13 -5 23 -10z m403 -14 c29 -22 33 -15
-116 -186 -16 -19 -55 -66 -86 -105 -31 -38 -72 -87 -92 -109 -32 -34 -38 -37
-57 -27 -12 7 -22 19 -22 29 1 9 48 73 106 142 58 69 133 158 166 198 34 39
66 72 72 72 6 0 19 -7 29 -14z m-2449 -193 c20 -22 25 -36 25 -87 1 -274 9
-425 29 -501 46 -179 96 -278 224 -447 32 -42 58 -83 58 -91 0 -22 -71 -61
-90 -49 -25 16 -106 122 -155 204 -113 188 -170 370 -180 570 -8 158 6 337 27
349 9 5 19 25 22 44 4 19 9 35 11 35 2 0 15 -12 29 -27z m2456 -2 c0 -10 9
-29 19 -42 30 -39 45 -219 31 -374 -16 -181 -43 -280 -121 -440 -64 -131 -97
-179 -148 -216 -23 -17 -48 -46 -56 -65 -17 -40 -29 -43 -51 -9 -9 14 -22 25
-30 25 -7 0 6 20 31 44 26 26 48 60 54 83 6 21 21 54 34 73 13 19 41 71 61
115 21 44 41 87 46 96 15 29 42 144 56 244 11 74 13 141 8 257 l-7 157 27 36
c30 39 46 45 46 16z m-935 -121 c0 -10 -65 -12 -309 -11 -170 0 -311 3 -314 5
-2 3 -1 10 3 16 11 18 620 8 620 -10z m-1071 -76 c52 -20 -38 -126 -126 -148
-34 -8 -34 -5 -4 43 19 30 101 111 112 111 1 0 9 -3 18 -6z m1580 -31 c25 -21
48 -48 52 -60 3 -12 12 -27 20 -34 47 -39 -22 -30 -76 10 -82 61 -99 83 -79
107 18 22 34 17 83 -23z m-306 -23 c68 -50 67 -44 70 -467 2 -260 -1 -389 -8
-403 -16 -30 -58 -26 -70 6 -6 14 -10 168 -10 365 0 361 -4 394 -48 418 -14 7
-163 11 -455 11 -413 0 -436 -1 -458 -19 l-24 -19 -5 -374 c-3 -205 -10 -381
-14 -390 -10 -23 -62 -24 -70 -2 -3 9 -6 189 -6 401 0 331 2 390 16 418 14 31
45 59 84 77 8 4 229 6 490 5 l475 -2 33 -25z m-1179 -54 c7 -8 11 -37 9 -68
-3 -51 -4 -53 -30 -51 -37 2 -38 -28 -2 -70 21 -25 25 -38 20 -66 -3 -20 -6
-47 -6 -60 l0 -25 -21 22 c-11 13 -29 42 -39 65 -11 24 -36 60 -56 81 -31 32
-35 42 -30 70 9 48 83 113 132 115 6 1 17 -5 23 -13z m1421 -25 c50 -40 68
-75 52 -101 -6 -11 -12 -26 -12 -34 0 -8 -13 -27 -28 -43 -15 -15 -38 -44 -50
-64 -26 -43 -57 -73 -46 -45 3 9 1 30 -6 46 -11 27 -9 34 20 79 32 52 33 76 0
66 -24 -8 -40 21 -40 72 0 70 41 79 110 24z m-1115 -81 c9 -15 -4 -50 -20 -50
-16 0 -29 35 -20 50 3 5 12 10 20 10 8 0 17 -5 20 -10z m756 -6 c11 -14 10
-18 -6 -30 -16 -12 -21 -12 -34 0 -12 12 -12 18 -1 30 16 20 24 20 41 0z
m-1333 -40 c28 -16 82 -84 82 -102 0 -6 -14 -20 -30 -32 -34 -25 -60 -68 -60
-102 0 -13 29 -58 68 -107 37 -46 76 -96 87 -111 63 -85 88 -116 101 -123 8
-4 14 -20 14 -34 l0 -26 -26 24 c-14 13 -42 48 -61 77 -19 29 -43 58 -53 65
-9 6 -24 26 -33 44 -9 17 -20 33 -25 35 -5 1 -26 25 -46 52 -33 44 -55 69
-106 125 -46 50 -60 76 -60 113 0 45 22 83 59 103 34 19 57 18 89 -1z m1951 2
c79 -41 82 -136 6 -212 -11 -11 -32 -36 -47 -55 -43 -55 -158 -199 -222 -277
-53 -65 -76 -85 -76 -64 0 12 32 57 117 164 156 194 146 178 140 223 -4 30
-15 48 -41 71 -20 17 -36 39 -36 49 0 28 41 83 75 100 38 18 49 19 84 1z
m-1087 -23 c12 -26 18 -28 68 -28 50 0 56 2 68 28 9 18 21 27 36 27 31 0 36
-7 24 -40 -12 -36 9 -72 53 -90 27 -11 32 -10 54 10 23 22 23 22 34 2 16 -29
14 -39 -9 -45 -27 -7 -36 -51 -17 -81 9 -13 33 -32 54 -42 50 -25 50 -48 -1
-54 -35 -4 -41 -9 -53 -44 -13 -38 -12 -41 12 -66 28 -30 31 -43 11 -59 -10
-9 -21 -7 -45 6 -35 20 -52 14 -85 -31 -17 -22 -18 -30 -8 -46 18 -29 15 -37
-17 -48 -32 -11 -51 0 -51 29 0 17 -40 49 -60 49 -17 0 -70 -43 -70 -56 0 -7
-5 -16 -10 -19 -19 -12 -40 17 -40 54 -1 30 -7 40 -36 59 -42 26 -48 27 -64 7
-18 -22 -48 -18 -55 6 -5 16 0 27 20 43 23 19 26 26 20 58 -9 45 -20 55 -65
60 -50 4 -45 28 12 55 26 12 49 31 53 43 10 31 -2 68 -25 75 -23 7 -26 27 -7
43 8 7 19 6 37 -3 36 -20 45 -19 79 16 22 22 31 40 31 64 0 29 9 42 32 44 4 1
13 -11 20 -26z m-695 -190 c55 -59 63 -87 32 -113 -13 -10 -31 -19 -41 -20
-14 0 -26 12 -83 81 -25 32 -27 57 -6 78 31 31 50 26 98 -26z m1624 26 c24
-24 19 -46 -25 -106 -38 -52 -57 -59 -96 -36 -39 23 -38 42 6 95 61 74 80 82
115 47z m-1520 -206 c26 -68 -12 -109 -48 -52 -29 45 -19 71 30 78 4 0 12 -11
18 -26z m1382 -4 c8 -13 5 -24 -14 -47 -13 -17 -29 -31 -36 -31 -17 -1 -26 34
-18 70 6 25 11 30 32 27 14 -2 31 -10 36 -19z m-1078 -220 c8 -24 -9 -41 -32
-32 -14 5 -18 35 -6 46 13 14 32 7 38 -14z m755 6 c15 -18 5 -35 -21 -35 -14
0 -19 7 -19 25 0 28 21 33 40 10z m446 -157 c16 -15 15 -19 -2 -49 -38 -64
-77 -71 -416 -73 -159 -1 -291 0 -293 3 -3 2 4 15 16 27 12 13 19 30 16 38 -5
14 -31 16 -166 16 -147 0 -161 -2 -170 -19 -9 -15 -6 -22 15 -35 35 -24 20
-40 -30 -32 -22 4 -57 6 -76 5 -19 -1 -64 -1 -100 0 -36 2 -143 2 -238 1
l-172 -2 -40 40 c-45 45 -52 79 -17 87 42 10 242 12 949 11 643 -1 709 -3 724
-18z m-276 -225 c0 -17 -16 -30 -40 -36 -14 -3 -50 -15 -80 -26 -121 -48 -137
-53 -180 -61 -25 -5 -58 -13 -73 -19 -44 -17 -366 -14 -397 4 -14 8 -35 14
-47 15 -24 0 -206 58 -255 81 -30 13 -35 24 -15 32 17 6 177 -17 207 -31 49
-22 194 -42 309 -42 112 0 287 25 342 50 13 5 65 16 114 24 117 17 115 17 115
9z"/>
<path d="M4262 6359 c-45 -13 -52 -38 -52 -190 0 -125 1 -131 25 -154 l24 -25
260 0 259 0 31 26 31 26 0 130 c0 71 -5 138 -10 149 -24 44 -55 49 -302 48
-128 0 -248 -5 -266 -10z m120 -146 c25 -22 23 -59 -4 -77 -29 -20 -47 -20
-70 1 -22 20 -23 51 -1 75 20 22 51 23 75 1z m357 -7 c27 -29 22 -57 -14 -76
-21 -11 -29 -11 -50 0 -33 18 -40 44 -19 75 21 32 54 32 83 1z"/>
<path d="M3516 5404 c-9 -8 -16 -19 -16 -24 0 -9 28 -40 36 -40 17 0 44 23 44
38 0 38 -37 53 -64 26z"/>
<path d="M5476 5398 c-15 -21 -14 -24 4 -42 19 -19 20 -19 40 -1 24 22 25 29
4 49 -21 21 -30 20 -48 -6z"/>
<path d="M4465 5360 c-66 -13 -155 -126 -155 -199 0 -48 19 -96 53 -132 50
-54 77 -68 144 -75 51 -6 68 -3 107 16 56 29 93 80 108 152 11 53 10 58 -19
119 -38 79 -53 93 -122 113 -59 17 -57 17 -116 6z m122 -100 c75 -45 83 -140
17 -197 -115 -101 -275 47 -182 167 41 53 108 65 165 30z"/>
<path d="M4489 5215 c-31 -17 -43 -53 -30 -88 11 -27 29 -37 71 -37 34 0 60
31 60 72 0 25 -22 58 -40 58 -5 0 -14 2 -22 5 -7 2 -25 -2 -39 -10z"/>
<path d="M4615 2886 c-3 -9 -8 -24 -11 -33 -9 -28 -32 -207 -27 -215 8 -14 91
-9 96 6 11 28 -26 241 -44 252 -5 3 -11 -2 -14 -10z"/>
<path d="M4020 3300 c0 -26 25 -36 45 -20 12 10 13 16 4 26 -18 22 -49 17 -49
-6z"/>
<path d="M4090 3268 c-33 -54 -39 -95 -34 -263 5 -199 11 -229 45 -233 31 -4
51 18 74 81 15 39 17 64 11 143 -8 112 -23 191 -42 219 -8 11 -14 32 -14 47 0
40 -17 43 -40 6z"/>
<path d="M3577 3187 c-15 -10 -18 -33 -20 -155 -3 -158 0 -166 54 -160 42 4
47 19 48 171 1 104 -1 119 -19 137 -23 23 -39 25 -63 7z"/>
<path d="M5814 2122 c-52 -63 -77 -125 -58 -145 10 -9 57 18 74 43 8 13 20 28
26 34 21 22 45 78 40 92 -10 26 -50 15 -82 -24z"/>
</g>
</svg>
